<svg width="219" height="340" viewBox="0 0 219 340" fill="none" xmlns="http://www.w3.org/2000/svg">
<rect x="0.205566" y="168.936" width="29.2711" height="29.2711" rx="4.99174" fill="#F6F6F6"/>
<rect x="41.1851" y="168.936" width="29.2711" height="29.2711" rx="4.99174" fill="#F6F6F6"/>
<rect x="82.1646" y="168.936" width="29.2711" height="29.2711" rx="4.99174" fill="#F6F6F6"/>
<rect x="123.144" y="168.936" width="29.2711" height="29.2711" rx="4.99174" fill="#F6F6F6"/>
<rect x="164.124" y="168.936" width="29.2711" height="29.2711" rx="4.99174" fill="#F6F6F6"/>
<path d="M16.3914 180.191L13.7415 186.132H12.889L15.5301 180.402H12.0672V179.734H16.3914V180.191Z" fill="#868686"/>
<path d="M54.2428 180.191L51.5929 186.132H50.7404L53.3815 180.402H49.9186V179.734H54.2428V180.191ZM55.2667 185.706C55.2667 185.565 55.3077 185.448 55.3898 185.354C55.4747 185.261 55.6007 185.214 55.7677 185.214C55.9347 185.214 56.0607 185.261 56.1456 185.354C56.2335 185.448 56.2775 185.565 56.2775 185.706C56.2775 185.841 56.2335 185.954 56.1456 186.044C56.0607 186.135 55.9347 186.181 55.7677 186.181C55.6007 186.181 55.4747 186.135 55.3898 186.044C55.3077 185.954 55.2667 185.841 55.2667 185.706ZM57.9122 182.924L58.2374 179.734H61.5158V180.485H58.9274L58.734 182.23C59.0475 182.045 59.4034 181.953 59.8019 181.953C60.3849 181.953 60.8478 182.146 61.1906 182.533C61.5333 182.917 61.7047 183.437 61.7047 184.093C61.7047 184.752 61.526 185.272 61.1686 185.653C60.8141 186.031 60.3175 186.22 59.6788 186.22C59.1134 186.22 58.652 186.063 58.2946 185.75C57.9371 185.437 57.7335 185.003 57.6837 184.449H58.4528C58.5026 184.815 58.6329 185.092 58.8439 185.28C59.0548 185.464 59.3331 185.557 59.6788 185.557C60.0568 185.557 60.3527 185.428 60.5665 185.17C60.7833 184.912 60.8917 184.556 60.8917 184.102C60.8917 183.674 60.7745 183.332 60.5402 183.074C60.3087 182.813 59.9996 182.683 59.6129 182.683C59.2584 182.683 58.9801 182.76 58.778 182.916L58.5626 183.091L57.9122 182.924Z" fill="#868686"/>
<path d="M98.0994 181.404C98.0994 181.723 98.0145 182.007 97.8446 182.256C97.6776 182.505 97.4505 182.7 97.1634 182.841C97.4974 182.984 97.7611 183.194 97.9544 183.469C98.1507 183.745 98.2489 184.057 98.2489 184.405C98.2489 184.959 98.0614 185.4 97.6864 185.728C97.3143 186.056 96.8236 186.22 96.2142 186.22C95.599 186.22 95.1053 186.056 94.7332 185.728C94.3641 185.397 94.1795 184.956 94.1795 184.405C94.1795 184.06 94.2733 183.748 94.4608 183.469C94.6512 183.191 94.9134 182.98 95.2474 182.836C94.9632 182.696 94.7391 182.501 94.575 182.252C94.411 182.003 94.3289 181.72 94.3289 181.404C94.3289 180.865 94.5018 180.437 94.8475 180.121C95.1932 179.804 95.6488 179.646 96.2142 179.646C96.7767 179.646 97.2308 179.804 97.5765 180.121C97.9251 180.437 98.0994 180.865 98.0994 181.404ZM97.4359 184.388C97.4359 184.03 97.3216 183.739 97.0931 183.513C96.8675 183.288 96.5716 183.175 96.2054 183.175C95.8392 183.175 95.5448 183.286 95.3221 183.509C95.1024 183.731 94.9925 184.024 94.9925 184.388C94.9925 184.751 95.0994 185.037 95.3133 185.245C95.5301 185.453 95.8304 185.557 96.2142 185.557C96.595 185.557 96.8939 185.453 97.1107 185.245C97.3275 185.034 97.4359 184.748 97.4359 184.388ZM96.2142 180.314C95.8949 180.314 95.6356 180.414 95.4364 180.613C95.2401 180.809 95.1419 181.077 95.1419 181.417C95.1419 181.742 95.2386 182.006 95.432 182.208C95.6283 182.407 95.889 182.507 96.2142 182.507C96.5394 182.507 96.7987 182.407 96.992 182.208C97.1883 182.006 97.2865 181.742 97.2865 181.417C97.2865 181.092 97.1854 180.827 96.9832 180.622C96.7811 180.417 96.5247 180.314 96.2142 180.314Z" fill="#868686"/>
<path d="M135.951 181.404C135.951 181.723 135.866 182.007 135.696 182.256C135.529 182.505 135.302 182.7 135.015 182.841C135.349 182.984 135.613 183.194 135.806 183.469C136.003 183.745 136.101 184.057 136.101 184.405C136.101 184.959 135.913 185.4 135.538 185.728C135.166 186.056 134.675 186.22 134.066 186.22C133.451 186.22 132.957 186.056 132.585 185.728C132.216 185.397 132.031 184.956 132.031 184.405C132.031 184.06 132.125 183.748 132.313 183.469C132.503 183.191 132.765 182.98 133.099 182.836C132.815 182.696 132.591 182.501 132.427 182.252C132.263 182.003 132.181 181.72 132.181 181.404C132.181 180.865 132.354 180.437 132.699 180.121C133.045 179.804 133.501 179.646 134.066 179.646C134.629 179.646 135.083 179.804 135.428 180.121C135.777 180.437 135.951 180.865 135.951 181.404ZM135.288 184.388C135.288 184.03 135.173 183.739 134.945 183.513C134.719 183.288 134.423 183.175 134.057 183.175C133.691 183.175 133.397 183.286 133.174 183.509C132.954 183.731 132.844 184.024 132.844 184.388C132.844 184.751 132.951 185.037 133.165 185.245C133.382 185.453 133.682 185.557 134.066 185.557C134.447 185.557 134.746 185.453 134.963 185.245C135.179 185.034 135.288 184.748 135.288 184.388ZM134.066 180.314C133.747 180.314 133.487 180.414 133.288 180.613C133.092 180.809 132.994 181.077 132.994 181.417C132.994 181.742 133.09 182.006 133.284 182.208C133.48 182.407 133.741 182.507 134.066 182.507C134.391 182.507 134.651 182.407 134.844 182.208C135.04 182.006 135.138 181.742 135.138 181.417C135.138 181.092 135.037 180.827 134.835 180.622C134.633 180.417 134.377 180.314 134.066 180.314ZM137.226 185.706C137.226 185.565 137.267 185.448 137.349 185.354C137.434 185.261 137.56 185.214 137.727 185.214C137.894 185.214 138.02 185.261 138.105 185.354C138.193 185.448 138.236 185.565 138.236 185.706C138.236 185.841 138.193 185.954 138.105 186.044C138.02 186.135 137.894 186.181 137.727 186.181C137.56 186.181 137.434 186.135 137.349 186.044C137.267 185.954 137.226 185.841 137.226 185.706ZM139.871 182.924L140.196 179.734H143.475V180.485H140.886L140.693 182.23C141.006 182.045 141.362 181.953 141.761 181.953C142.344 181.953 142.807 182.146 143.15 182.533C143.492 182.917 143.664 183.437 143.664 184.093C143.664 184.752 143.485 185.272 143.128 185.653C142.773 186.031 142.276 186.22 141.638 186.22C141.072 186.22 140.611 186.063 140.254 185.75C139.896 185.437 139.693 185.003 139.643 184.449H140.412C140.462 184.815 140.592 185.092 140.803 185.28C141.014 185.464 141.292 185.557 141.638 185.557C142.016 185.557 142.312 185.428 142.526 185.17C142.742 184.912 142.851 184.556 142.851 184.102C142.851 183.674 142.734 183.332 142.499 183.074C142.268 182.813 141.959 182.683 141.572 182.683C141.217 182.683 140.939 182.76 140.737 182.916L140.522 183.091L139.871 182.924Z" fill="#868686"/>
<path d="M179.294 183.32C179.124 183.522 178.921 183.685 178.683 183.808C178.449 183.931 178.191 183.992 177.91 183.992C177.541 183.992 177.219 183.901 176.943 183.72C176.671 183.538 176.46 183.283 176.31 182.955C176.161 182.624 176.086 182.259 176.086 181.861C176.086 181.433 176.167 181.048 176.328 180.705C176.492 180.362 176.723 180.1 177.022 179.918C177.321 179.737 177.67 179.646 178.068 179.646C178.701 179.646 179.199 179.883 179.562 180.358C179.929 180.83 180.112 181.474 180.112 182.292V182.529C180.112 183.774 179.866 184.684 179.373 185.258C178.881 185.829 178.139 186.122 177.145 186.137H176.987V185.451H177.159C177.829 185.439 178.345 185.265 178.705 184.928C179.066 184.588 179.262 184.052 179.294 183.32ZM178.042 183.32C178.314 183.32 178.565 183.236 178.793 183.069C179.025 182.902 179.193 182.696 179.299 182.45V182.125C179.299 181.591 179.183 181.158 178.951 180.824C178.72 180.49 178.427 180.323 178.073 180.323C177.715 180.323 177.428 180.46 177.211 180.736C176.994 181.008 176.886 181.369 176.886 181.817C176.886 182.253 176.99 182.614 177.198 182.898C177.409 183.179 177.69 183.32 178.042 183.32Z" fill="#868686"/>
<rect x="1.37646" y="290.704" width="268.123" height="49.1754" rx="4.99174" fill="#7854F7"/>
<path d="M104.103 318.156C103.944 318.156 103.812 318.104 103.708 318C103.612 317.896 103.564 317.768 103.564 317.617C103.564 317.553 103.584 317.473 103.624 317.377L106.679 310.165C106.743 310.021 106.831 309.905 106.943 309.818C107.062 309.722 107.206 309.674 107.374 309.674H107.494C107.661 309.674 107.801 309.722 107.913 309.818C108.033 309.905 108.125 310.021 108.188 310.165L111.243 317.377C111.283 317.473 111.303 317.553 111.303 317.617C111.303 317.768 111.251 317.896 111.148 318C111.052 318.104 110.924 318.156 110.764 318.156C110.652 318.156 110.549 318.128 110.453 318.072C110.365 318.008 110.297 317.924 110.249 317.82L109.47 315.951H105.397L104.618 317.82C104.57 317.924 104.499 318.008 104.403 318.072C104.315 318.128 104.215 318.156 104.103 318.156ZM105.816 314.957H109.051L107.434 311.063L105.816 314.957ZM115.237 318.216C114.742 318.216 114.271 318.092 113.824 317.844C113.384 317.589 113.025 317.221 112.745 316.742C112.474 316.255 112.338 315.688 112.338 315.041C112.338 314.394 112.474 313.831 112.745 313.352C113.025 312.864 113.384 312.497 113.824 312.249C114.271 311.994 114.742 311.866 115.237 311.866C116.02 311.866 116.703 312.17 117.286 312.777V309.841C117.286 309.682 117.338 309.55 117.442 309.446C117.553 309.342 117.685 309.29 117.837 309.29C117.989 309.29 118.117 309.346 118.22 309.458C118.324 309.562 118.376 309.69 118.376 309.841V317.617C118.376 317.768 118.324 317.896 118.22 318C118.117 318.104 117.989 318.156 117.837 318.156C117.685 318.156 117.553 318.104 117.442 318C117.338 317.896 117.286 317.768 117.286 317.617V317.305C116.703 317.912 116.02 318.216 115.237 318.216ZM115.393 317.197C115.76 317.197 116.104 317.117 116.423 316.958C116.751 316.79 117.038 316.57 117.286 316.299V313.783C117.038 313.511 116.751 313.296 116.423 313.136C116.104 312.968 115.76 312.884 115.393 312.884C114.802 312.884 114.327 313.072 113.967 313.448C113.608 313.823 113.428 314.354 113.428 315.041C113.428 315.728 113.608 316.259 113.967 316.634C114.327 317.01 114.802 317.197 115.393 317.197ZM122.795 318.216C122.3 318.216 121.829 318.092 121.381 317.844C120.942 317.589 120.583 317.221 120.303 316.742C120.032 316.255 119.896 315.688 119.896 315.041C119.896 314.394 120.032 313.831 120.303 313.352C120.583 312.864 120.942 312.497 121.381 312.249C121.829 311.994 122.3 311.866 122.795 311.866C123.578 311.866 124.261 312.17 124.844 312.777V309.841C124.844 309.682 124.896 309.55 124.999 309.446C125.111 309.342 125.243 309.29 125.395 309.29C125.547 309.29 125.674 309.346 125.778 309.458C125.882 309.562 125.934 309.69 125.934 309.841V317.617C125.934 317.768 125.882 317.896 125.778 318C125.674 318.104 125.547 318.156 125.395 318.156C125.243 318.156 125.111 318.104 124.999 318C124.896 317.896 124.844 317.768 124.844 317.617V317.305C124.261 317.912 123.578 318.216 122.795 318.216ZM122.951 317.197C123.318 317.197 123.662 317.117 123.981 316.958C124.309 316.79 124.596 316.57 124.844 316.299V313.783C124.596 313.511 124.309 313.296 123.981 313.136C123.662 312.968 123.318 312.884 122.951 312.884C122.36 312.884 121.885 313.072 121.525 313.448C121.166 313.823 120.986 314.354 120.986 315.041C120.986 315.728 121.166 316.259 121.525 316.634C121.885 317.01 122.36 317.197 122.951 317.197ZM133.046 318.216C131.88 318.216 131.297 317.688 131.297 316.634V312.92H130.446C130.382 312.92 130.326 312.9 130.278 312.86C130.238 312.813 130.218 312.757 130.218 312.693C130.218 312.613 130.254 312.545 130.326 312.489L131.955 310.896C132.027 310.824 132.095 310.788 132.159 310.788C132.223 310.788 132.275 310.812 132.315 310.86C132.363 310.908 132.387 310.964 132.387 311.028V311.986H133.741C133.876 311.986 133.988 312.03 134.076 312.118C134.164 312.206 134.208 312.317 134.208 312.453C134.208 312.581 134.164 312.693 134.076 312.789C133.988 312.876 133.876 312.92 133.741 312.92H132.387V316.538C132.387 316.85 132.459 317.05 132.602 317.137C132.754 317.217 132.942 317.257 133.165 317.257C133.325 317.257 133.485 317.233 133.645 317.185C133.677 317.177 133.709 317.169 133.741 317.161C133.78 317.153 133.828 317.149 133.884 317.149C133.996 317.149 134.096 317.193 134.184 317.281C134.272 317.361 134.316 317.461 134.316 317.581C134.316 317.764 134.224 317.904 134.04 318C133.729 318.144 133.397 318.216 133.046 318.216ZM138.125 318.216C137.51 318.216 136.971 318.084 136.508 317.82C136.045 317.557 135.685 317.185 135.43 316.706C135.182 316.219 135.058 315.664 135.058 315.041C135.058 314.418 135.182 313.867 135.43 313.388C135.685 312.9 136.045 312.525 136.508 312.261C136.971 311.998 137.51 311.866 138.125 311.866C138.732 311.866 139.267 311.998 139.731 312.261C140.194 312.525 140.553 312.9 140.809 313.388C141.064 313.867 141.192 314.418 141.192 315.041C141.192 315.664 141.064 316.219 140.809 316.706C140.553 317.185 140.194 317.557 139.731 317.82C139.267 318.084 138.732 318.216 138.125 318.216ZM138.125 317.221C138.453 317.221 138.764 317.145 139.06 316.994C139.363 316.842 139.611 316.602 139.802 316.275C140.002 315.947 140.102 315.532 140.102 315.029C140.102 314.534 140.002 314.122 139.802 313.795C139.611 313.467 139.363 313.232 139.06 313.088C138.764 312.936 138.453 312.86 138.125 312.86C137.79 312.86 137.47 312.936 137.167 313.088C136.871 313.232 136.628 313.467 136.436 313.795C136.244 314.122 136.149 314.534 136.149 315.029C136.149 315.532 136.244 315.947 136.436 316.275C136.628 316.602 136.871 316.842 137.167 316.994C137.47 317.145 137.79 317.221 138.125 317.221ZM148.658 318.216C148.083 318.216 147.552 318.088 147.064 317.832C146.577 317.577 146.186 317.209 145.89 316.73C145.603 316.251 145.459 315.688 145.459 315.041C145.459 314.394 145.603 313.831 145.89 313.352C146.186 312.872 146.577 312.505 147.064 312.249C147.552 311.994 148.083 311.866 148.658 311.866C149.081 311.866 149.444 311.922 149.748 312.034C150.059 312.138 150.347 312.273 150.611 312.441C150.77 312.545 150.85 312.685 150.85 312.86C150.85 312.98 150.802 313.092 150.706 313.196C150.619 313.292 150.515 313.34 150.395 313.34C150.307 313.34 150.219 313.316 150.131 313.268C149.868 313.132 149.64 313.036 149.448 312.98C149.265 312.916 149.033 312.884 148.754 312.884C148.067 312.884 147.528 313.084 147.136 313.483C146.745 313.875 146.549 314.394 146.549 315.041C146.549 315.688 146.745 316.211 147.136 316.61C147.528 317.002 148.067 317.197 148.754 317.197C149.033 317.197 149.265 317.169 149.448 317.113C149.64 317.05 149.868 316.95 150.131 316.814C150.219 316.766 150.307 316.742 150.395 316.742C150.515 316.742 150.619 316.794 150.706 316.898C150.802 316.994 150.85 317.101 150.85 317.221C150.85 317.397 150.77 317.537 150.611 317.641C150.347 317.808 150.059 317.948 149.748 318.06C149.444 318.164 149.081 318.216 148.658 318.216ZM153.776 318.216C153.424 318.216 153.097 318.144 152.793 318C152.498 317.856 152.262 317.649 152.087 317.377C151.911 317.097 151.823 316.778 151.823 316.419C151.823 315.828 152.055 315.356 152.518 315.005C152.989 314.654 153.676 314.478 154.578 314.478H156.028V314.382C156.028 313.855 155.896 313.475 155.633 313.244C155.377 313.012 154.974 312.896 154.423 312.896C154.119 312.896 153.848 312.92 153.608 312.968C153.376 313.016 153.117 313.088 152.829 313.184C152.765 313.2 152.714 313.208 152.674 313.208C152.554 313.208 152.45 313.164 152.362 313.076C152.274 312.988 152.23 312.88 152.23 312.753C152.23 312.537 152.334 312.385 152.542 312.297C153.221 312.01 153.912 311.866 154.614 311.866C155.165 311.866 155.629 311.978 156.004 312.202C156.387 312.425 156.667 312.717 156.843 313.076C157.026 313.428 157.118 313.811 157.118 314.226V317.617C157.118 317.768 157.062 317.896 156.951 318C156.847 318.104 156.719 318.156 156.567 318.156C156.415 318.156 156.288 318.104 156.184 318C156.08 317.896 156.028 317.768 156.028 317.617V317.305C155.437 317.912 154.686 318.216 153.776 318.216ZM154.183 317.257C154.535 317.257 154.874 317.173 155.201 317.006C155.529 316.83 155.804 316.614 156.028 316.359V315.352H154.722C153.516 315.352 152.913 315.668 152.913 316.299C152.913 316.586 153.009 316.818 153.201 316.994C153.4 317.169 153.728 317.257 154.183 317.257ZM159.485 318.156C159.333 318.156 159.205 318.104 159.101 318C158.997 317.896 158.945 317.768 158.945 317.617V312.477C158.945 312.325 158.997 312.198 159.101 312.094C159.205 311.982 159.333 311.926 159.485 311.926C159.636 311.926 159.764 311.982 159.868 312.094C159.98 312.198 160.036 312.325 160.036 312.477V312.992C160.595 312.242 161.222 311.866 161.917 311.866H161.976C162.128 311.866 162.252 311.918 162.348 312.022C162.452 312.126 162.504 312.253 162.504 312.405C162.504 312.557 162.452 312.681 162.348 312.777C162.244 312.872 162.112 312.92 161.953 312.92H161.893C161.509 312.92 161.158 313.016 160.838 313.208C160.519 313.392 160.251 313.647 160.036 313.975V317.617C160.036 317.768 159.98 317.896 159.868 318C159.764 318.104 159.636 318.156 159.485 318.156ZM165.64 318.216C164.474 318.216 163.891 317.688 163.891 316.634V312.92H163.04C162.977 312.92 162.921 312.9 162.873 312.86C162.833 312.813 162.813 312.757 162.813 312.693C162.813 312.613 162.849 312.545 162.921 312.489L164.55 310.896C164.622 310.824 164.69 310.788 164.754 310.788C164.818 310.788 164.869 310.812 164.909 310.86C164.957 310.908 164.981 310.964 164.981 311.028V311.986H166.335C166.471 311.986 166.583 312.03 166.67 312.118C166.758 312.206 166.802 312.317 166.802 312.453C166.802 312.581 166.758 312.693 166.67 312.789C166.583 312.876 166.471 312.92 166.335 312.92H164.981V316.538C164.981 316.85 165.053 317.05 165.197 317.137C165.349 317.217 165.536 317.257 165.76 317.257C165.92 317.257 166.079 317.233 166.239 317.185C166.271 317.177 166.303 317.169 166.335 317.161C166.375 317.153 166.423 317.149 166.479 317.149C166.591 317.149 166.69 317.193 166.778 317.281C166.866 317.361 166.91 317.461 166.91 317.581C166.91 317.764 166.818 317.904 166.635 318C166.323 318.144 165.992 318.216 165.64 318.216Z" fill="white"/>
<rect x="95.0439" y="222.795" width="125.28" height="40.9795" rx="4.99174" fill="#F6F6F6"/>
<path fill-rule="evenodd" clip-rule="evenodd" d="M114.147 242.7H109.471C108.826 242.7 108.302 243.223 108.302 243.868C108.302 244.514 108.826 245.037 109.471 245.037H114.147C114.792 245.037 115.316 244.514 115.316 243.868C115.316 243.223 114.792 242.7 114.147 242.7Z" fill="#222222"/>
<path d="M152.31 246.675H151.222V239.462L149.04 240.263V239.281L152.14 238.116H152.31V246.675Z" fill="#222222"/>
<path fill-rule="evenodd" clip-rule="evenodd" d="M205.322 242.696H204.153V241.527C204.153 240.881 203.63 240.358 202.984 240.358C202.339 240.358 201.815 240.881 201.815 241.527V242.696H200.646C200.001 242.696 199.478 243.219 199.478 243.865C199.478 244.51 200.001 245.033 200.646 245.033H201.815V246.202C201.815 246.848 202.339 247.371 202.984 247.371C203.63 247.371 204.153 246.848 204.153 246.202V245.033H205.322C205.967 245.033 206.491 244.51 206.491 243.865C206.491 243.219 205.967 242.696 205.322 242.696Z" fill="#222222"/>
<path d="M9.78737 240.349C9.78737 239.686 9.57678 239.14 9.1556 238.711C8.73442 238.275 8.03246 237.885 7.04971 237.542C6.06696 237.191 5.3026 236.867 4.75663 236.57C2.93932 235.596 2.03067 234.153 2.03067 232.242C2.03067 230.947 2.42455 229.882 3.21231 229.048C4.00007 228.213 5.06861 227.718 6.41794 227.562V225.011H8.28985V227.585C9.64698 227.78 10.696 228.358 11.437 229.317C12.1779 230.268 12.5484 231.509 12.5484 233.037H9.71717C9.71717 232.055 9.49488 231.282 9.05031 230.721C8.61353 230.151 8.01686 229.867 7.2603 229.867C6.51154 229.867 5.92657 230.07 5.50539 230.475C5.08421 230.881 4.87362 231.462 4.87362 232.218C4.87362 232.897 5.08031 233.443 5.49369 233.856C5.91487 234.262 6.62463 234.648 7.62298 235.014C8.62133 235.381 9.40519 235.72 9.97456 236.032C10.5439 236.344 11.0236 236.703 11.4136 237.109C11.8036 237.506 12.1038 237.967 12.3144 238.489C12.525 239.012 12.6303 239.624 12.6303 240.326C12.6303 241.644 12.2247 242.713 11.4136 243.532C10.6102 244.351 9.48708 244.834 8.04416 244.982V247.264H6.18396V244.994C4.63964 244.822 3.4502 244.269 2.61564 243.333C1.78888 242.397 1.37551 241.157 1.37551 239.612H4.21846C4.21846 240.595 4.46414 241.356 4.95552 241.894C5.45469 242.432 6.15666 242.701 7.06141 242.701C7.95056 242.701 8.62523 242.486 9.0854 242.058C9.55338 241.629 9.78737 241.059 9.78737 240.349ZM19.3848 234.979H21.1163C21.9898 234.972 22.6801 234.745 23.1871 234.301C23.7018 233.856 23.9592 233.213 23.9592 232.37C23.9592 231.559 23.7447 230.931 23.3158 230.487C22.8946 230.034 22.2472 229.808 21.3737 229.808C20.6093 229.808 19.9814 230.031 19.4901 230.475C18.9987 230.912 18.753 231.485 18.753 232.195H15.91C15.91 231.321 16.1401 230.526 16.6003 229.808C17.0683 229.091 17.7157 228.533 18.5424 228.135C19.377 227.73 20.309 227.527 21.3386 227.527C23.0389 227.527 24.3726 227.956 25.3398 228.814C26.3147 229.664 26.8022 230.849 26.8022 232.37C26.8022 233.135 26.5565 233.856 26.0651 234.535C25.5815 235.206 24.9537 235.713 24.1815 236.056C25.1175 236.376 25.8272 236.879 26.3108 237.565C26.8022 238.251 27.0479 239.07 27.0479 240.022C27.0479 241.551 26.5214 242.767 25.4685 243.672C24.4233 244.577 23.0467 245.029 21.3386 245.029C19.7007 245.029 18.3591 244.592 17.314 243.719C16.2688 242.845 15.7463 241.683 15.7463 240.232H18.5892C18.5892 240.981 18.8388 241.59 19.338 242.058C19.8449 242.525 20.5235 242.759 21.3737 242.759C22.255 242.759 22.9492 242.525 23.4562 242.058C23.9631 241.59 24.2166 240.911 24.2166 240.022C24.2166 239.125 23.9514 238.435 23.4211 237.951C22.8907 237.467 22.1029 237.226 21.0578 237.226H19.3848V234.979ZM40.3306 238.723H42.4482V241.005H40.3306V244.795H37.4876V241.005H30.1287L30.0468 239.273L37.394 227.761H40.3306V238.723ZM33.0302 238.723H37.4876V231.61L37.277 231.984L33.0302 238.723ZM54.947 238.723H57.0646V241.005H54.947V244.795H52.1041V241.005H44.7451L44.6633 239.273L52.0105 227.761H54.947V238.723ZM47.6466 238.723H52.1041V231.61L51.8935 231.984L47.6466 238.723Z" fill="#7854F7"/>
<path d="M32.5176 267.984C32.5176 267.597 32.3948 267.279 32.1491 267.028C31.9034 266.774 31.4939 266.546 30.9206 266.346C30.3474 266.141 29.9015 265.952 29.583 265.78C28.5229 265.211 27.9929 264.369 27.9929 263.254C27.9929 262.499 28.2226 261.878 28.6822 261.391C29.1417 260.904 29.765 260.616 30.5521 260.525V259.037H31.6441V260.538C32.4357 260.652 33.0477 260.989 33.4799 261.548C33.9121 262.103 34.1282 262.827 34.1282 263.719H32.4767C32.4767 263.145 32.347 262.695 32.0877 262.367C31.8329 262.035 31.4848 261.869 31.0435 261.869C30.6067 261.869 30.2655 261.987 30.0198 262.224C29.7741 262.46 29.6513 262.799 29.6513 263.241C29.6513 263.637 29.7718 263.955 30.013 264.196C30.2586 264.433 30.6727 264.658 31.255 264.872C31.8374 265.086 32.2947 265.284 32.6268 265.466C32.9589 265.648 33.2387 265.857 33.4662 266.093C33.6937 266.326 33.8689 266.594 33.9917 266.899C34.1146 267.204 34.176 267.561 34.176 267.97C34.176 268.739 33.9394 269.362 33.4662 269.84C32.9976 270.318 32.3424 270.6 31.5007 270.686V272.017H30.4156V270.693C29.5148 270.593 28.8209 270.27 28.3341 269.724C27.8518 269.178 27.6107 268.455 27.6107 267.554H29.2691C29.2691 268.127 29.4124 268.571 29.699 268.885C29.9902 269.199 30.3997 269.356 30.9275 269.356C31.4461 269.356 31.8397 269.231 32.1081 268.98C32.3811 268.73 32.5176 268.398 32.5176 267.984ZM37.0579 265.65L37.5971 260.641H42.934V262.074H38.9757L38.7027 264.449C39.1622 264.185 39.6809 264.053 40.2587 264.053C41.2051 264.053 41.9398 264.355 42.4631 264.961C42.9908 265.566 43.2547 266.38 43.2547 267.404C43.2547 268.414 42.9635 269.219 42.3812 269.82C41.7988 270.416 41.0003 270.714 39.9857 270.714C39.0758 270.714 38.3205 270.457 37.7199 269.943C37.1239 269.424 36.8009 268.741 36.7508 267.895H38.3546C38.4183 268.377 38.5912 268.748 38.8733 269.008C39.1554 269.262 39.5239 269.39 39.9789 269.39C40.4885 269.39 40.8843 269.208 41.1664 268.844C41.453 268.48 41.5963 267.984 41.5963 267.356C41.5963 266.751 41.4394 266.273 41.1254 265.923C40.8115 265.568 40.3793 265.391 39.8288 265.391C39.5285 265.391 39.2737 265.431 39.0644 265.513C38.8551 265.591 38.6276 265.745 38.3819 265.977L37.0579 265.65ZM50.716 260.593V261.965H50.5113C49.5831 261.978 48.8415 262.233 48.2864 262.729C47.7314 263.225 47.4015 263.928 47.2969 264.838C47.8292 264.278 48.5094 263.998 49.3374 263.998C50.2155 263.998 50.9071 264.308 51.4121 264.926C51.9217 265.545 52.1765 266.344 52.1765 267.322C52.1765 268.332 51.8785 269.151 51.2825 269.779C50.691 270.402 49.913 270.714 48.9484 270.714C47.9566 270.714 47.1513 270.348 46.5325 269.615C45.9183 268.882 45.6112 267.922 45.6112 266.735V266.169C45.6112 264.426 46.0343 263.061 46.8806 262.074C47.7314 261.086 48.953 260.593 50.5454 260.593H50.716ZM48.9348 265.336C48.5708 265.336 48.2364 265.438 47.9316 265.643C47.6313 265.848 47.4106 266.121 47.2696 266.462V266.967C47.2696 267.704 47.4243 268.291 47.7336 268.728C48.043 269.16 48.4434 269.376 48.9348 269.376C49.4262 269.376 49.8152 269.192 50.1018 268.823C50.3884 268.455 50.5317 267.97 50.5317 267.37C50.5317 266.769 50.3862 266.28 50.095 265.902C49.8038 265.525 49.4171 265.336 48.9348 265.336ZM60.9754 266.394C60.9754 267.822 60.707 268.901 60.1701 269.629C59.6378 270.352 58.8256 270.714 57.7337 270.714C56.6599 270.714 55.8501 270.361 55.3041 269.656C54.7627 268.946 54.4852 267.897 54.4715 266.51V264.79C54.4715 263.361 54.7377 262.29 55.27 261.576C55.8069 260.861 56.6236 260.504 57.72 260.504C58.8074 260.504 59.6173 260.852 60.1496 261.548C60.6865 262.244 60.9617 263.286 60.9754 264.674V266.394ZM59.317 264.537C59.317 263.605 59.1896 262.922 58.9348 262.49C58.68 262.053 58.2751 261.835 57.72 261.835C57.1786 261.835 56.7805 262.042 56.5257 262.456C56.2709 262.865 56.1367 263.507 56.1231 264.38V266.633C56.1231 267.561 56.2527 268.252 56.5121 268.707C56.7714 269.162 57.1786 269.39 57.7337 269.39C58.266 269.39 58.6596 269.18 58.9144 268.762C59.1691 268.339 59.3034 267.679 59.317 266.783V264.537Z" fill="#868686"/>
<path d="M26.9282 267.083H53.7549V267.779H26.9282V267.083Z" fill="#868686"/>
<path d="M53.7549 267.083H61.6988V267.779H53.7549V267.083Z" fill="#868686"/>
<path d="M75.1714 12.335H76.4413L73.0629 3.84101H71.7091L68.3307 12.335H69.5887L70.4872 9.96289H74.2489L75.1714 12.335ZM72.3561 5.06299L73.8296 8.87269H70.9065L72.3561 5.06299ZM78.0766 9.43576C78.0766 8.24972 78.7475 7.41111 79.7778 7.41111C80.8081 7.41111 81.4311 8.22576 81.4311 9.4118C81.4311 10.5978 80.7961 11.4963 79.7658 11.4963C78.6876 11.4963 78.0766 10.6218 78.0766 9.43576ZM81.443 11.5562C81.443 11.9037 81.479 12.2032 81.5029 12.335H82.5931C82.5812 12.2391 82.5332 11.8198 82.5332 11.2687V3.66131H81.4191V7.38715C81.2274 6.91992 80.6763 6.41675 79.658 6.41675C78.0287 6.41675 76.9265 7.80645 76.9265 9.43576C76.9265 11.1489 77.9688 12.4907 79.658 12.4907C80.5565 12.4907 81.1675 12.0115 81.443 11.4604V11.5562ZM85.5629 12.335V6.5725H84.4488V12.335H85.5629ZM84.1972 4.3921C84.1972 4.83537 84.5566 5.19478 84.9998 5.19478C85.4551 5.19478 85.8145 4.83537 85.8145 4.3921C85.8145 3.93686 85.4551 3.57745 84.9998 3.57745C84.5566 3.57745 84.1972 3.93686 84.1972 4.3921ZM88.1498 9.43576C88.1498 8.24972 88.8207 7.41111 89.851 7.41111C90.8813 7.41111 91.5042 8.22576 91.5042 9.4118C91.5042 10.5978 90.8693 11.4963 89.839 11.4963C88.7608 11.4963 88.1498 10.6218 88.1498 9.43576ZM91.5162 11.5562C91.5162 11.9037 91.5522 12.2032 91.5761 12.335H92.6663C92.6543 12.2391 92.6064 11.8198 92.6064 11.2687V3.66131H91.4923V7.38715C91.3006 6.91992 90.7495 6.41675 89.7312 6.41675C88.1019 6.41675 86.9997 7.80645 86.9997 9.43576C86.9997 11.1489 88.042 12.4907 89.7312 12.4907C90.6297 12.4907 91.2407 12.0115 91.5162 11.4604V11.5562ZM94.1625 10.7895C94.1625 11.7 94.9173 12.5147 96.0913 12.5147C97.1216 12.5147 97.6967 11.9636 97.9483 11.5562C97.9483 11.9756 97.9842 12.1912 98.0082 12.335H99.1103C99.0864 12.1912 99.0385 11.8917 99.0385 11.3885V8.5013C99.0385 7.37517 98.3676 6.39279 96.6424 6.39279C95.3965 6.39279 94.4021 7.15952 94.2823 8.2617L95.3605 8.51328C95.4324 7.84239 95.8757 7.35121 96.6664 7.35121C97.5409 7.35121 97.9123 7.81843 97.9123 8.3815C97.9123 8.58517 97.8165 8.76487 97.4691 8.81279L95.9116 9.04041C94.9173 9.18417 94.1625 9.75922 94.1625 10.7895ZM96.2471 11.5682C95.672 11.5682 95.3126 11.1609 95.3126 10.7296C95.3126 10.2145 95.672 9.93893 96.1512 9.86704L97.9123 9.60348V9.86704C97.9123 11.125 97.1696 11.5682 96.2471 11.5682ZM100.254 10.8374C100.35 11.4963 101.02 12.5147 102.602 12.5147C104.027 12.5147 104.71 11.5443 104.71 10.7296C104.71 9.87902 104.159 9.24408 103.117 9.01645L102.183 8.81279C101.739 8.71695 101.524 8.46536 101.524 8.11794C101.524 7.72259 101.907 7.35121 102.482 7.35121C103.393 7.35121 103.632 8.01012 103.68 8.30962L104.674 7.93824C104.555 7.42309 104.063 6.39279 102.482 6.39279C101.356 6.39279 100.433 7.23141 100.433 8.21378C100.433 9.02843 100.973 9.63942 101.871 9.8311L102.853 10.0467C103.333 10.1546 103.596 10.4301 103.596 10.7895C103.596 11.1968 103.249 11.5562 102.614 11.5562C101.799 11.5562 101.344 11.077 101.272 10.478L100.254 10.8374ZM109.983 8.082C109.983 5.86567 111.469 4.73953 113.05 4.73953C114.632 4.73953 116.117 5.86567 116.117 8.082C116.117 10.2983 114.632 11.4364 113.05 11.4364C111.469 11.4364 109.983 10.2983 109.983 8.082ZM108.785 8.082C108.785 10.9213 110.918 12.5147 113.05 12.5147C115.183 12.5147 117.315 10.9213 117.315 8.082C117.315 5.2427 115.183 3.66131 113.05 3.66131C110.918 3.66131 108.785 5.2427 108.785 8.082ZM122.009 6.51259C121.949 6.50061 121.793 6.47665 121.637 6.47665C121.05 6.47665 120.331 6.6923 119.912 7.57883V6.5725H118.81V12.335H119.936V9.44774C119.936 8.17784 120.571 7.67467 121.517 7.67467C121.673 7.67467 121.841 7.68665 122.009 7.71061V6.51259ZM124.323 12.335V6.5725H123.209V12.335H124.323ZM122.957 4.3921C122.957 4.83537 123.317 5.19478 123.76 5.19478C124.215 5.19478 124.575 4.83537 124.575 4.3921C124.575 3.93686 124.215 3.57745 123.76 3.57745C123.317 3.57745 122.957 3.93686 122.957 4.3921ZM125.82 12.6464C125.963 13.8804 127.042 14.7909 128.479 14.7909C130.648 14.7909 131.367 13.3653 131.367 11.9037V6.5725H130.252V7.37517C129.965 6.80012 129.366 6.46467 128.479 6.46467C126.898 6.46467 125.832 7.71061 125.832 9.26804C125.832 10.8973 126.946 12.0594 128.479 12.0594C129.342 12.0594 129.965 11.6401 130.24 11.113V11.9396C130.24 13.1856 129.689 13.8085 128.479 13.8085C127.605 13.8085 126.994 13.1975 126.91 12.3949L125.82 12.6464ZM128.647 11.113C127.629 11.113 126.982 10.3942 126.982 9.26804C126.982 8.15388 127.653 7.42309 128.647 7.42309C129.617 7.42309 130.288 8.15388 130.288 9.26804C130.288 10.3822 129.617 11.113 128.647 11.113ZM134.279 12.335V6.5725H133.165V12.335H134.279ZM132.913 4.3921C132.913 4.83537 133.273 5.19478 133.716 5.19478C134.171 5.19478 134.531 4.83537 134.531 4.3921C134.531 3.93686 134.171 3.57745 133.716 3.57745C133.273 3.57745 132.913 3.93686 132.913 4.3921ZM137.321 9.00447C137.321 8.12992 137.777 7.42309 138.663 7.42309C139.669 7.42309 140.005 8.07002 140.005 8.87269V12.335H141.131V8.68101C141.131 7.39913 140.448 6.40477 139.07 6.40477C138.4 6.40477 137.717 6.68032 137.297 7.39913V6.5725H136.195V12.335H137.321V9.00447ZM142.563 10.7895C142.563 11.7 143.318 12.5147 144.492 12.5147C145.522 12.5147 146.097 11.9636 146.349 11.5562C146.349 11.9756 146.385 12.1912 146.409 12.335H147.511C147.487 12.1912 147.439 11.8917 147.439 11.3885V8.5013C147.439 7.37517 146.768 6.39279 145.043 6.39279C143.797 6.39279 142.803 7.15952 142.683 8.2617L143.761 8.51328C143.833 7.84239 144.276 7.35121 145.067 7.35121C145.941 7.35121 146.313 7.81843 146.313 8.3815C146.313 8.58517 146.217 8.76487 145.869 8.81279L144.312 9.04041C143.318 9.18417 142.563 9.75922 142.563 10.7895ZM144.647 11.5682C144.072 11.5682 143.713 11.1609 143.713 10.7296C143.713 10.2145 144.072 9.93893 144.552 9.86704L146.313 9.60348V9.86704C146.313 11.125 145.57 11.5682 144.647 11.5682ZM150.319 12.335V3.66131H149.193V12.335H150.319ZM151.696 10.8374C151.792 11.4963 152.463 12.5147 154.044 12.5147C155.47 12.5147 156.153 11.5443 156.153 10.7296C156.153 9.87902 155.601 9.24408 154.559 9.01645L153.625 8.81279C153.181 8.71695 152.966 8.46536 152.966 8.11794C152.966 7.72259 153.349 7.35121 153.924 7.35121C154.835 7.35121 155.074 8.01012 155.122 8.30962L156.117 7.93824C155.997 7.42309 155.506 6.39279 153.924 6.39279C152.798 6.39279 151.876 7.23141 151.876 8.21378C151.876 9.02843 152.415 9.63942 153.313 9.8311L154.296 10.0467C154.775 10.1546 155.038 10.4301 155.038 10.7895C155.038 11.1968 154.691 11.5562 154.056 11.5562C153.241 11.5562 152.786 11.077 152.714 10.478L151.696 10.8374Z" fill="#868686"/>
<path d="M18.9852 71.3542H22.1599L13.7139 50.1194H10.3295L1.88349 71.3542H5.02828L7.27457 65.4241H16.679L18.9852 71.3542ZM11.9468 53.1743L15.6307 62.6986H8.32283L11.9468 53.1743ZM26.2482 64.1062C26.2482 61.1411 27.9254 59.0446 30.5011 59.0446C33.0769 59.0446 34.6343 61.0812 34.6343 64.0463C34.6343 67.0114 33.0469 69.2577 30.4712 69.2577C27.7756 69.2577 26.2482 67.0713 26.2482 64.1062ZM34.6642 69.4075C34.6642 70.276 34.7541 71.0248 34.814 71.3542H37.5395C37.5095 71.1146 37.3897 70.0664 37.3897 68.6887V49.6701H34.6043V58.9847C34.1251 57.8166 32.7474 56.5587 30.2016 56.5587C26.1284 56.5587 23.3729 60.033 23.3729 64.1062C23.3729 68.3892 25.9786 71.7436 30.2016 71.7436C32.4479 71.7436 33.9754 70.5456 34.6642 69.1679V69.4075ZM44.9639 71.3542V56.9481H42.1785V71.3542H44.9639ZM41.5496 51.4971C41.5496 52.6053 42.4481 53.5038 43.5562 53.5038C44.6944 53.5038 45.5929 52.6053 45.5929 51.4971C45.5929 50.359 44.6944 49.4605 43.5562 49.4605C42.4481 49.4605 41.5496 50.359 41.5496 51.4971ZM51.4311 64.1062C51.4311 61.1411 53.1083 59.0446 55.6841 59.0446C58.2598 59.0446 59.8172 61.0812 59.8172 64.0463C59.8172 67.0114 58.2299 69.2577 55.6541 69.2577C52.9586 69.2577 51.4311 67.0713 51.4311 64.1062ZM59.8472 69.4075C59.8472 70.276 59.937 71.0248 59.9969 71.3542H62.7224C62.6925 71.1146 62.5727 70.0664 62.5727 68.6887V49.6701H59.7873V58.9847C59.3081 57.8166 57.9304 56.5587 55.3846 56.5587C51.3113 56.5587 48.5559 60.033 48.5559 64.1062C48.5559 68.3892 51.1616 71.7436 55.3846 71.7436C57.6309 71.7436 59.1583 70.5456 59.8472 69.1679V69.4075ZM66.463 67.4906C66.463 69.7669 68.3498 71.8035 71.285 71.8035C73.8607 71.8035 75.2983 70.4258 75.9273 69.4075C75.9273 70.4557 76.0171 70.9948 76.077 71.3542H78.8325C78.7726 70.9948 78.6528 70.2461 78.6528 68.9882V61.7701C78.6528 58.9548 76.9756 56.4988 72.6627 56.4988C69.5478 56.4988 67.062 58.4157 66.7625 61.1711L69.458 61.8001C69.6377 60.1228 70.7459 58.8949 72.7226 58.8949C74.909 58.8949 75.8374 60.0629 75.8374 61.4706C75.8374 61.9798 75.5978 62.429 74.7293 62.5488L70.8357 63.1179C68.3498 63.4773 66.463 64.9149 66.463 67.4906ZM71.6743 69.4374C70.2367 69.4374 69.3382 68.4191 69.3382 67.3409C69.3382 66.053 70.2367 65.3642 71.4347 65.1845L75.8374 64.5255V65.1845C75.8374 68.3293 73.9805 69.4374 71.6743 69.4374ZM81.6909 67.6104C81.9305 69.2577 83.6077 71.8035 87.5612 71.8035C91.1253 71.8035 92.8324 69.3775 92.8324 67.3409C92.8324 65.2144 91.4547 63.627 88.849 63.058L86.5129 62.5488C85.4047 62.3092 84.8656 61.6803 84.8656 60.8117C84.8656 59.8233 85.824 58.8949 87.2617 58.8949C89.5379 58.8949 90.1369 60.5421 90.2567 61.2909L92.7426 60.3624C92.4431 59.0746 91.2151 56.4988 87.2617 56.4988C84.4463 56.4988 82.1401 58.5954 82.1401 61.0513C82.1401 63.0879 83.4879 64.6154 85.7342 65.0946L88.1901 65.6337C89.3881 65.9033 90.0471 66.5921 90.0471 67.4906C90.0471 68.509 89.1785 69.4075 87.5911 69.4075C85.5545 69.4075 84.4164 68.2095 84.2367 66.7119L81.6909 67.6104ZM106.015 60.7218C106.015 55.181 109.729 52.3657 113.682 52.3657C117.636 52.3657 121.35 55.181 121.35 60.7218C121.35 66.2627 117.636 69.108 113.682 69.108C109.729 69.108 106.015 66.2627 106.015 60.7218ZM103.02 60.7218C103.02 67.8201 108.351 71.8035 113.682 71.8035C119.014 71.8035 124.345 67.8201 124.345 60.7218C124.345 53.6236 119.014 49.6701 113.682 49.6701C108.351 49.6701 103.02 53.6236 103.02 60.7218ZM136.078 56.7983C135.928 56.7684 135.539 56.7085 135.15 56.7085C133.682 56.7085 131.885 57.2476 130.837 59.4639V56.9481H128.081V71.3542H130.897V64.1362C130.897 60.9614 132.484 59.7035 134.85 59.7035C135.239 59.7035 135.659 59.7335 136.078 59.7934V56.7983ZM141.864 71.3542V56.9481H139.079V71.3542H141.864ZM138.45 51.4971C138.45 52.6053 139.348 53.5038 140.456 53.5038C141.595 53.5038 142.493 52.6053 142.493 51.4971C142.493 50.359 141.595 49.4605 140.456 49.4605C139.348 49.4605 138.45 50.359 138.45 51.4971ZM145.606 72.133C145.965 75.2179 148.661 77.4941 152.255 77.4941C157.676 77.4941 159.473 73.93 159.473 70.276V56.9481H156.687V58.9548C155.969 57.5171 154.471 56.6785 152.255 56.6785C148.301 56.6785 145.636 59.7934 145.636 63.6869C145.636 67.7602 148.421 70.6654 152.255 70.6654C154.411 70.6654 155.969 69.6171 156.658 68.2993V70.3659C156.658 73.4807 155.28 75.0382 152.255 75.0382C150.068 75.0382 148.541 73.5107 148.331 71.504L145.606 72.133ZM152.674 68.2993C150.128 68.2993 148.511 66.5023 148.511 63.6869C148.511 60.9015 150.188 59.0746 152.674 59.0746C155.1 59.0746 156.777 60.9015 156.777 63.6869C156.777 66.4723 155.1 68.2993 152.674 68.2993ZM166.755 71.3542V56.9481H163.969V71.3542H166.755ZM163.34 51.4971C163.34 52.6053 164.239 53.5038 165.347 53.5038C166.485 53.5038 167.384 52.6053 167.384 51.4971C167.384 50.359 166.485 49.4605 165.347 49.4605C164.239 49.4605 163.34 50.359 163.34 51.4971ZM174.36 63.028C174.36 60.8416 175.498 59.0746 177.714 59.0746C180.23 59.0746 181.069 60.6919 181.069 62.6986V71.3542H183.884V62.2194C183.884 59.0147 182.177 56.5288 178.733 56.5288C177.055 56.5288 175.348 57.2176 174.3 59.0147V56.9481H171.545V71.3542H174.36V63.028ZM187.464 67.4906C187.464 69.7669 189.351 71.8035 192.286 71.8035C194.862 71.8035 196.299 70.4258 196.928 69.4075C196.928 70.4557 197.018 70.9948 197.078 71.3542H199.833C199.774 70.9948 199.654 70.2461 199.654 68.9882V61.7701C199.654 58.9548 197.976 56.4988 193.664 56.4988C190.549 56.4988 188.063 58.4157 187.763 61.1711L190.459 61.8001C190.639 60.1228 191.747 58.8949 193.724 58.8949C195.91 58.8949 196.838 60.0629 196.838 61.4706C196.838 61.9798 196.599 62.429 195.73 62.5488L191.837 63.1179C189.351 63.4773 187.464 64.9149 187.464 67.4906ZM192.675 69.4374C191.238 69.4374 190.339 68.4191 190.339 67.3409C190.339 66.053 191.238 65.3642 192.436 65.1845L196.838 64.5255V65.1845C196.838 68.3293 194.981 69.4374 192.675 69.4374ZM206.855 71.3542V49.6701H204.04V71.3542H206.855ZM210.296 67.6104C210.536 69.2577 212.213 71.8035 216.167 71.8035C219.731 71.8035 221.438 69.3775 221.438 67.3409C221.438 65.2144 220.06 63.627 217.455 63.058L215.118 62.5488C214.01 62.3092 213.471 61.6803 213.471 60.8117C213.471 59.8233 214.43 58.8949 215.867 58.8949C218.143 58.8949 218.742 60.5421 218.862 61.2909L221.348 60.3624C221.049 59.0746 219.821 56.4988 215.867 56.4988C213.052 56.4988 210.746 58.5954 210.746 61.0513C210.746 63.0879 212.093 64.6154 214.34 65.0946L216.796 65.6337C217.994 65.9033 218.653 66.5921 218.653 67.4906C218.653 68.509 217.784 69.4075 216.197 69.4075C214.16 69.4075 213.022 68.2095 212.842 66.7119L210.296 67.6104ZM5.9268 98.7218C5.9268 93.181 9.64065 90.3657 13.5941 90.3657C17.5476 90.3657 21.2614 93.181 21.2614 98.7218C21.2614 104.263 17.5476 107.108 13.5941 107.108C9.64065 107.108 5.9268 104.263 5.9268 98.7218ZM2.93175 98.7218C2.93175 105.82 8.26293 109.804 13.5941 109.804C18.9253 109.804 24.2565 105.82 24.2565 98.7218C24.2565 91.6236 18.9253 87.6701 13.5941 87.6701C8.26293 87.6701 2.93175 91.6236 2.93175 98.7218ZM46.6821 109.354V98.9614H36.5289V101.597H43.8967C43.7769 103.783 42.0697 107.138 37.3376 107.138C33.5338 107.138 29.9398 104.353 29.9398 98.7218C29.9398 93.0912 33.6537 90.3657 37.4574 90.3657C40.7519 90.3657 43.2378 92.1627 44.1962 95.2176L46.8618 94.0795C45.6338 90.2459 42.0697 87.6701 37.4574 87.6701C32.216 87.6701 26.9448 91.5337 26.9448 98.7218C26.9448 105.91 31.9165 109.804 37.2477 109.804C40.8118 109.804 43.118 108.036 44.0465 106.359L44.316 109.354H46.6821ZM72.2193 92.9414C71.7401 90.6352 69.8233 87.6701 65.0312 87.6701C61.1077 87.6701 58.0228 90.6652 58.0228 93.9897C58.0228 97.1644 60.1792 99.1411 63.2042 99.8001L66.2292 100.459C68.3557 100.908 69.4039 102.226 69.4039 103.754C69.4039 105.61 67.9663 107.138 65.0312 107.138C61.8265 107.138 60.1493 104.952 59.9396 102.585L57.1243 103.484C57.5136 106.509 59.9396 109.804 65.0611 109.804C69.5836 109.804 72.399 106.808 72.399 103.514C72.399 100.549 70.4223 98.3325 66.8881 97.5538L63.7134 96.8649C61.9163 96.4756 60.9879 95.3075 60.9879 93.78C60.9879 91.8033 62.695 90.2459 65.0911 90.2459C68.0562 90.2459 69.344 92.3424 69.5836 93.8699L72.2193 92.9414ZM78.0446 101.028C78.0446 98.8416 79.1828 97.0746 81.3991 97.0746C83.9149 97.0746 84.7535 98.6919 84.7535 100.699V109.354H87.5689V100.219C87.5689 97.0147 85.8617 94.5288 82.4174 94.5288C80.7402 94.5288 79.033 95.2176 77.9847 97.0147V94.9481H75.2293V109.354H78.0446V101.028ZM93.8742 100.669C93.994 98.8117 95.4316 96.9847 97.7977 96.9847C100.343 96.9847 101.691 98.602 101.751 100.669H93.8742ZM102.17 104.412C101.631 106.03 100.463 107.318 98.1271 107.318C95.7011 107.318 93.8442 105.521 93.7843 102.945H104.626C104.656 102.765 104.686 102.406 104.686 102.046C104.686 97.5538 102.2 94.4988 97.7677 94.4988C94.1437 94.4988 90.8791 97.5837 90.8791 102.106C90.8791 106.988 94.2635 109.804 98.1271 109.804C101.482 109.804 103.788 107.797 104.596 105.251L102.17 104.412ZM107.382 105.491C107.382 107.767 109.268 109.804 112.204 109.804C114.779 109.804 116.217 108.426 116.846 107.407C116.846 108.456 116.936 108.995 116.996 109.354H119.751C119.691 108.995 119.571 108.246 119.571 106.988V99.7701C119.571 96.9548 117.894 94.4988 113.581 94.4988C110.466 94.4988 107.981 96.4157 107.681 99.1711L110.377 99.8001C110.556 98.1228 111.664 96.8949 113.641 96.8949C115.828 96.8949 116.756 98.0629 116.756 99.4706C116.756 99.9798 116.516 100.429 115.648 100.549L111.754 101.118C109.268 101.477 107.382 102.915 107.382 105.491ZM112.593 107.437C111.155 107.437 110.257 106.419 110.257 105.341C110.257 104.053 111.155 103.364 112.353 103.184L116.756 102.526V103.184C116.756 106.329 114.899 107.437 112.593 107.437ZM136.866 94.9481H132.972L126.743 101.328V87.6701H123.957V109.354H126.743V105.011L128.749 103.005L133.452 109.354H136.986L130.726 101.028L136.866 94.9481ZM140.759 100.669C140.879 98.8117 142.317 96.9847 144.683 96.9847C147.229 96.9847 148.577 98.602 148.636 100.669H140.759ZM149.056 104.412C148.517 106.03 147.349 107.318 145.012 107.318C142.586 107.318 140.73 105.521 140.67 102.945H151.512C151.542 102.765 151.572 102.406 151.572 102.046C151.572 97.5538 149.086 94.4988 144.653 94.4988C141.029 94.4988 137.764 97.5837 137.764 102.106C137.764 106.988 141.149 109.804 145.012 109.804C148.367 109.804 150.673 107.797 151.482 105.251L149.056 104.412ZM163.162 94.7983C163.012 94.7684 162.623 94.7085 162.234 94.7085C160.766 94.7085 158.969 95.2476 157.921 97.4639V94.9481H155.165V109.354H157.981V102.136C157.981 98.9614 159.568 97.7035 161.934 97.7035C162.324 97.7035 162.743 97.7335 163.162 97.7934V94.7983ZM164.815 105.61C165.055 107.258 166.732 109.804 170.685 109.804C174.249 109.804 175.957 107.378 175.957 105.341C175.957 103.214 174.579 101.627 171.973 101.058L169.637 100.549C168.529 100.309 167.99 99.6803 167.99 98.8117C167.99 97.8233 168.948 96.8949 170.386 96.8949C172.662 96.8949 173.261 98.5421 173.381 99.2909L175.867 98.3624C175.567 97.0746 174.339 94.4988 170.386 94.4988C167.57 94.4988 165.264 96.5954 165.264 99.0513C165.264 101.088 166.612 102.615 168.858 103.095L171.314 103.634C172.512 103.903 173.171 104.592 173.171 105.491C173.171 106.509 172.303 107.407 170.715 107.407C168.679 107.407 167.541 106.209 167.361 104.712L164.815 105.61Z" fill="#222222"/>
<path d="M8.8534 5.86567C8.66171 4.90725 7.87102 3.66131 5.81043 3.66131C4.20509 3.66131 2.85133 4.81141 2.85133 6.32091C2.85133 7.60279 3.72588 8.47734 5.07964 8.75289L6.26568 8.99249C6.92459 9.12427 7.29597 9.50764 7.29597 9.99883C7.29597 10.5978 6.80479 11.0411 5.91825 11.0411C4.72023 11.0411 4.13321 10.2864 4.06133 9.44774L2.52786 9.85506C2.65964 11.0651 3.654 12.5147 5.90627 12.5147C7.883 12.5147 8.9732 11.1968 8.9732 9.891C8.9732 8.69299 8.14657 7.68665 6.60112 7.38715L5.41509 7.15952C4.79212 7.03972 4.49261 6.66834 4.49261 6.20111C4.49261 5.63804 5.01974 5.12289 5.82241 5.12289C6.90063 5.12289 7.28399 5.85369 7.36785 6.32091L8.8534 5.86567ZM19.3862 12.335V3.84101H17.7209V7.25537H14.019V3.84101H12.3658V12.335H14.019V8.81279H17.7209V12.335H19.3862ZM24.5342 8.082C24.5342 6.16517 25.876 5.25468 27.1818 5.25468C28.4996 5.25468 29.8414 6.16517 29.8414 8.082C29.8414 9.99883 28.4996 10.9093 27.1818 10.9093C25.876 10.9093 24.5342 9.99883 24.5342 8.082ZM22.821 8.09398C22.821 10.8255 24.8816 12.5147 27.1818 12.5147C29.494 12.5147 31.5546 10.8255 31.5546 8.09398C31.5546 5.35052 29.494 3.66131 27.1818 3.66131C24.8816 3.66131 22.821 5.35052 22.821 8.09398ZM40.3038 12.335V10.7775H36.6379V8.81279H39.9564V7.33923H36.6379V5.39844H40.3038V3.84101H34.9846V12.335H40.3038ZM49.6687 5.86567C49.477 4.90725 48.6863 3.66131 46.6257 3.66131C45.0204 3.66131 43.6666 4.81141 43.6666 6.32091C43.6666 7.60279 44.5412 8.47734 45.8949 8.75289L47.081 8.99249C47.7399 9.12427 48.1113 9.50764 48.1113 9.99883C48.1113 10.5978 47.6201 11.0411 46.7335 11.0411C45.5355 11.0411 44.9485 10.2864 44.8766 9.44774L43.3431 9.85506C43.4749 11.0651 44.4693 12.5147 46.7215 12.5147C48.6983 12.5147 49.7885 11.1968 49.7885 9.891C49.7885 8.69299 48.9618 7.68665 47.4164 7.38715L46.2304 7.15952C45.6074 7.03972 45.3079 6.66834 45.3079 6.20111C45.3079 5.63804 45.835 5.12289 46.6377 5.12289C47.7159 5.12289 48.0993 5.85369 48.1831 6.32091L49.6687 5.86567Z" fill="#272D4E"/>
</svg>
