<svg width="812" height="270" viewBox="0 0 812 270" fill="none" xmlns="http://www.w3.org/2000/svg">
<path d="M6.885 2.735V63H30.175C41.48 63 48.79 55.945 48.79 46.17C48.79 38.69 44.03 33.335 38.165 31.89C43.18 30.19 46.92 25.175 46.92 18.97C46.92 9.62 40.29 2.735 28.56 2.735H6.885ZM18.445 27.64V12.595H26.69C32.385 12.595 35.36 15.485 35.36 20.075C35.36 24.665 32.13 27.64 26.775 27.64H18.445ZM18.445 53.225V37.33H28.135C34 37.33 37.06 40.645 37.06 45.405C37.06 50.25 33.66 53.225 27.965 53.225H18.445ZM84.6208 63H95.4158C95.2458 61.555 94.9908 58.665 94.9908 55.435V21.18H83.6858V45.49C83.6858 50.335 80.7958 53.735 75.7808 53.735C70.5108 53.735 68.1308 49.995 68.1308 45.32V21.18H56.8258V47.615C56.8258 56.71 62.6058 64.105 72.7208 64.105C77.1408 64.105 81.9858 62.405 84.2808 58.495C84.2808 60.195 84.4508 62.15 84.6208 63ZM118.361 63V21.18H107.056V63H118.361ZM105.696 7.495C105.696 11.235 108.841 14.38 112.666 14.38C116.576 14.38 119.636 11.235 119.636 7.495C119.636 3.58499 116.576 0.439995 112.666 0.439995C108.841 0.439995 105.696 3.58499 105.696 7.495ZM141.769 63V1.46H130.464V63H141.769ZM193.737 1.46H182.602V25.345C181.412 23.135 178.012 20.16 170.787 20.16C158.972 20.16 150.727 29.765 150.727 42.005C150.727 54.67 159.227 64.02 171.127 64.02C176.737 64.02 180.987 61.47 182.857 58.155C182.857 60.11 183.112 62.15 183.282 63H194.077C193.907 61.3 193.737 58.24 193.737 55.435V1.46ZM162.117 42.005C162.117 34.525 166.707 30.275 172.487 30.275C178.267 30.275 182.772 34.44 182.772 41.92C182.772 49.485 178.267 53.905 172.487 53.905C166.537 53.905 162.117 49.485 162.117 42.005ZM217.306 63V21.18H206.001V63H217.306ZM204.641 7.495C204.641 11.235 207.786 14.38 211.611 14.38C215.521 14.38 218.581 11.235 218.581 7.495C218.581 3.58499 215.521 0.439995 211.611 0.439995C207.786 0.439995 204.641 3.58499 204.641 7.495ZM240.714 38.945C240.714 34.1 243.604 30.275 248.534 30.275C253.974 30.275 256.269 33.93 256.269 38.605V63H267.574V36.65C267.574 27.47 262.814 20.075 252.444 20.075C247.939 20.075 242.924 22.03 240.374 26.365V21.18H229.409V63H240.714V38.945ZM276.073 65.295C277.263 73.285 284.913 80.425 296.388 80.425C312.113 80.425 318.318 69.97 318.318 58.495V21.18H307.438V26.11C305.993 23.305 302.168 20.415 295.538 20.415C284.063 20.415 276.073 29.765 276.073 40.815C276.073 52.545 284.403 61.13 295.538 61.13C301.573 61.13 305.483 58.495 307.183 55.775V58.835C307.183 66.91 303.188 70.48 296.048 70.48C290.693 70.48 287.038 67.165 286.273 62.575L276.073 65.295ZM297.493 51.44C291.628 51.44 287.463 47.36 287.463 40.815C287.463 34.355 291.883 30.275 297.493 30.275C302.933 30.275 307.353 34.355 307.353 40.815C307.353 47.275 303.273 51.44 297.493 51.44ZM359.011 37.33C359.266 33.505 362.496 29.085 368.361 29.085C374.821 29.085 377.541 33.165 377.711 37.33H359.011ZM378.816 48.21C377.456 51.95 374.566 54.585 369.296 54.585C363.686 54.585 359.011 50.59 358.756 45.065H388.676C388.676 44.895 388.846 43.195 388.846 41.58C388.846 28.15 381.111 19.905 368.191 19.905C357.481 19.905 347.621 28.575 347.621 41.92C347.621 56.03 357.736 64.275 369.211 64.275C379.496 64.275 386.126 58.24 388.251 51.015L378.816 48.21ZM392.07 63H404.82C406.265 60.705 411.875 52.46 413.405 50.165L422.16 63H435.42L420.29 41.665L434.91 21.18H422.075L413.83 33.59C412.385 31.295 406.945 23.475 405.5 21.18H392.07L406.945 42.005L392.07 63ZM439.525 51.61C439.525 58.155 444.965 64.19 453.89 64.19C460.095 64.19 464.09 61.3 466.215 57.985C466.215 59.6 466.385 61.895 466.64 63H477.01C476.755 61.555 476.5 58.58 476.5 56.37V35.8C476.5 27.385 471.57 19.905 458.31 19.905C447.09 19.905 441.055 27.13 440.375 33.675L450.405 35.8C450.745 32.145 453.465 29 458.395 29C463.155 29 465.45 31.465 465.45 34.44C465.45 35.885 464.685 37.075 462.305 37.415L452.02 38.945C445.05 39.965 439.525 44.13 439.525 51.61ZM456.27 55.775C452.615 55.775 450.83 53.395 450.83 50.93C450.83 47.7 453.125 46.085 456.015 45.66L465.45 44.215V46.085C465.45 53.48 461.03 55.775 456.27 55.775ZM506.514 30.36C512.124 30.36 514.759 33.93 515.779 37.415L525.894 34.015C524.109 26.96 517.649 19.905 506.259 19.905C494.104 19.905 484.584 29.17 484.584 42.09C484.584 54.925 494.274 64.275 506.599 64.275C517.734 64.275 524.279 57.135 526.149 50.165L516.204 46.85C515.269 50.08 512.379 53.905 506.599 53.905C500.819 53.905 495.889 49.655 495.889 42.09C495.889 34.525 500.734 30.36 506.514 30.36ZM548.403 8.685H538.203V14.55C538.203 18.29 536.163 21.18 531.743 21.18H529.618V31.21H537.183V50.675C537.183 58.75 542.283 63.595 550.443 63.595C553.758 63.595 555.798 63 556.818 62.575V53.225C556.223 53.395 554.693 53.565 553.333 53.565C550.103 53.565 548.403 52.375 548.403 48.72V31.21H556.818V21.18H548.403V8.685ZM575.651 63V1.46H564.346V63H575.651ZM602.204 79.49L628.469 21.18H616.399L606.114 45.66L594.979 21.18H582.314L600.079 57.73L590.219 79.49H602.204ZM670.258 8.685H660.058V14.55C660.058 18.29 658.018 21.18 653.598 21.18H651.473V31.21H659.038V50.675C659.038 58.75 664.138 63.595 672.298 63.595C675.613 63.595 677.653 63 678.673 62.575V53.225C678.078 53.395 676.548 53.565 675.188 53.565C671.958 53.565 670.258 52.375 670.258 48.72V31.21H678.673V21.18H670.258V8.685ZM697.506 38.435C697.761 33.845 700.566 30.275 705.326 30.275C710.766 30.275 713.061 33.93 713.061 38.605V63H724.366V36.65C724.366 27.47 719.436 20.075 708.811 20.075C704.816 20.075 700.226 21.435 697.506 24.665V1.46H686.201V63H697.506V38.435ZM744.085 37.33C744.34 33.505 747.57 29.085 753.435 29.085C759.895 29.085 762.615 33.165 762.785 37.33H744.085ZM763.89 48.21C762.53 51.95 759.64 54.585 754.37 54.585C748.76 54.585 744.085 50.59 743.83 45.065H773.75C773.75 44.895 773.92 43.195 773.92 41.58C773.92 28.15 766.185 19.905 753.265 19.905C742.555 19.905 732.695 28.575 732.695 41.92C732.695 56.03 742.81 64.275 754.285 64.275C764.57 64.275 771.2 58.24 773.325 51.015L763.89 48.21ZM14.28 132.33C14.535 128.505 17.765 124.085 23.63 124.085C30.09 124.085 32.81 128.165 32.98 132.33H14.28ZM34.085 143.21C32.725 146.95 29.835 149.585 24.565 149.585C18.955 149.585 14.28 145.59 14.025 140.065H43.945C43.945 139.895 44.115 138.195 44.115 136.58C44.115 123.15 36.38 114.905 23.46 114.905C12.75 114.905 2.89 123.575 2.89 136.92C2.89 151.03 13.005 159.275 24.48 159.275C34.765 159.275 41.395 153.24 43.52 146.015L34.085 143.21ZM81.1524 159.275C98.0674 159.275 106.737 148.055 109.032 138.79L98.0674 135.475C96.4524 141.085 91.4374 147.8 81.1524 147.8C71.4624 147.8 62.4524 140.745 62.4524 127.91C62.4524 114.225 71.9724 107.765 80.9824 107.765C91.4374 107.765 96.1124 114.14 97.5574 119.92L108.607 116.435C106.227 106.66 97.6424 96.46 80.9824 96.46C64.8324 96.46 50.2974 108.7 50.2974 127.91C50.2974 147.12 64.3224 159.275 81.1524 159.275ZM135.303 148.99C129.778 148.99 124.678 144.91 124.678 137.09C124.678 129.185 129.778 125.19 135.303 125.19C140.828 125.19 145.928 129.185 145.928 137.09C145.928 144.995 140.828 148.99 135.303 148.99ZM135.303 114.905C122.808 114.905 113.373 124.17 113.373 137.09C113.373 149.925 122.808 159.275 135.303 159.275C147.798 159.275 157.233 149.925 157.233 137.09C157.233 124.17 147.798 114.905 135.303 114.905ZM177.462 158V133.52C177.462 128.93 180.352 125.275 185.282 125.275C190.382 125.275 192.677 128.675 192.677 133.18V158H203.897V133.52C203.897 129.015 206.787 125.275 211.632 125.275C216.817 125.275 219.027 128.675 219.027 133.18V158H229.992V130.885C229.992 119.665 222.597 114.99 214.862 114.99C209.337 114.99 204.917 116.86 201.602 121.96C199.477 117.455 194.887 114.99 189.192 114.99C184.602 114.99 179.247 117.2 176.952 121.28V116.18H166.157V158H177.462ZM252.75 158V133.52C252.75 128.93 255.64 125.275 260.57 125.275C265.67 125.275 267.965 128.675 267.965 133.18V158H279.185V133.52C279.185 129.015 282.075 125.275 286.92 125.275C292.105 125.275 294.315 128.675 294.315 133.18V158H305.28V130.885C305.28 119.665 297.885 114.99 290.15 114.99C284.625 114.99 280.205 116.86 276.89 121.96C274.765 117.455 270.175 114.99 264.48 114.99C259.89 114.99 254.535 117.2 252.24 121.28V116.18H241.445V158H252.75ZM324.978 132.33C325.233 128.505 328.463 124.085 334.328 124.085C340.788 124.085 343.508 128.165 343.678 132.33H324.978ZM344.783 143.21C343.423 146.95 340.533 149.585 335.263 149.585C329.653 149.585 324.978 145.59 324.723 140.065H354.643C354.643 139.895 354.813 138.195 354.813 136.58C354.813 123.15 347.078 114.905 334.158 114.905C323.448 114.905 313.588 123.575 313.588 136.92C313.588 151.03 323.703 159.275 335.178 159.275C345.463 159.275 352.093 153.24 354.218 146.015L344.783 143.21ZM389.216 116.01C388.366 115.925 387.516 115.84 386.581 115.84C383.011 115.84 377.231 116.86 374.681 122.385V116.18H363.716V158H375.021V138.875C375.021 129.865 380.036 127.06 385.816 127.06C386.836 127.06 387.941 127.145 389.216 127.4V116.01ZM415.538 125.36C421.148 125.36 423.783 128.93 424.803 132.415L434.918 129.015C433.133 121.96 426.673 114.905 415.283 114.905C403.128 114.905 393.608 124.17 393.608 137.09C393.608 149.925 403.298 159.275 415.623 159.275C426.758 159.275 433.303 152.135 435.173 145.165L425.228 141.85C424.293 145.08 421.403 148.905 415.623 148.905C409.843 148.905 404.913 144.655 404.913 137.09C404.913 129.525 409.758 125.36 415.538 125.36ZM451.316 132.33C451.571 128.505 454.801 124.085 460.666 124.085C467.126 124.085 469.846 128.165 470.016 132.33H451.316ZM471.121 143.21C469.761 146.95 466.871 149.585 461.601 149.585C455.991 149.585 451.316 145.59 451.061 140.065H480.981C480.981 139.895 481.151 138.195 481.151 136.58C481.151 123.15 473.416 114.905 460.496 114.905C449.786 114.905 439.926 123.575 439.926 136.92C439.926 151.03 450.041 159.275 461.516 159.275C471.801 159.275 478.431 153.24 480.556 146.015L471.121 143.21ZM534.77 116.18L525.675 143.04L517.94 116.18H506.04L519.385 158H530.86L540.465 129.44L550.24 158H561.545L574.635 116.18H563.415L555.68 143.125L546.67 116.18H534.77ZM588.86 132.33C589.115 128.505 592.345 124.085 598.21 124.085C604.67 124.085 607.39 128.165 607.56 132.33H588.86ZM608.665 143.21C607.305 146.95 604.415 149.585 599.145 149.585C593.535 149.585 588.86 145.59 588.605 140.065H618.525C618.525 139.895 618.695 138.195 618.695 136.58C618.695 123.15 610.96 114.905 598.04 114.905C587.33 114.905 577.47 123.575 577.47 136.92C577.47 151.03 587.585 159.275 599.06 159.275C609.345 159.275 615.975 153.24 618.1 146.015L608.665 143.21ZM638.563 158V152.9C640.773 156.47 645.193 159.02 650.973 159.02C662.873 159.02 670.693 149.585 670.693 136.92C670.693 124.51 663.638 115.075 651.398 115.075C645.193 115.075 640.603 117.795 638.733 120.77V96.46H627.598V158H638.563ZM659.388 137.005C659.388 144.655 654.798 148.905 649.018 148.905C643.323 148.905 638.563 144.57 638.563 137.005C638.563 129.355 643.323 125.19 649.018 125.19C654.798 125.19 659.388 129.355 659.388 137.005ZM676.073 146.355C676.583 151.115 680.918 159.275 693.498 159.275C704.463 159.275 709.733 152.305 709.733 145.505C709.733 139.385 705.568 134.37 697.323 132.67L691.373 131.395C689.078 130.97 687.548 129.695 687.548 127.655C687.548 125.275 689.928 123.49 692.903 123.49C697.663 123.49 699.448 126.635 699.788 129.1L709.223 126.975C708.713 122.47 704.718 114.905 692.818 114.905C683.808 114.905 677.178 121.11 677.178 128.59C677.178 134.455 680.833 139.3 688.908 141.085L694.433 142.36C697.663 143.04 698.938 144.57 698.938 146.44C698.938 148.65 697.153 150.605 693.413 150.605C688.483 150.605 686.018 147.545 685.763 144.23L676.073 146.355ZM730.128 158V116.18H718.823V158H730.128ZM717.463 102.495C717.463 106.235 720.608 109.38 724.433 109.38C728.343 109.38 731.403 106.235 731.403 102.495C731.403 98.585 728.343 95.44 724.433 95.44C720.608 95.44 717.463 98.585 717.463 102.495ZM756.171 103.685H745.971V109.55C745.971 113.29 743.931 116.18 739.511 116.18H737.386V126.21H744.951V145.675C744.951 153.75 750.051 158.595 758.211 158.595C761.526 158.595 763.566 158 764.586 157.575V148.225C763.991 148.395 762.461 148.565 761.101 148.565C757.871 148.565 756.171 147.375 756.171 143.72V126.21H764.586V116.18H756.171V103.685ZM782.019 132.33C782.274 128.505 785.504 124.085 791.369 124.085C797.829 124.085 800.549 128.165 800.719 132.33H782.019ZM801.824 143.21C800.464 146.95 797.574 149.585 792.304 149.585C786.694 149.585 782.019 145.59 781.764 140.065H811.684C811.684 139.895 811.854 138.195 811.854 136.58C811.854 123.15 804.119 114.905 791.199 114.905C780.489 114.905 770.629 123.575 770.629 136.92C770.629 151.03 780.744 159.275 792.219 159.275C802.504 159.275 809.134 153.24 811.259 146.015L801.824 143.21ZM20.485 269.49L46.75 211.18H34.68L24.395 235.66L13.26 211.18H0.595L18.36 247.73L8.5 269.49H20.485ZM70.3913 243.99C64.8663 243.99 59.7663 239.91 59.7663 232.09C59.7663 224.185 64.8663 220.19 70.3913 220.19C75.9163 220.19 81.0163 224.185 81.0163 232.09C81.0163 239.995 75.9163 243.99 70.3913 243.99ZM70.3913 209.905C57.8963 209.905 48.4613 219.17 48.4613 232.09C48.4613 244.925 57.8963 254.275 70.3913 254.275C82.8863 254.275 92.3213 244.925 92.3213 232.09C92.3213 219.17 82.8863 209.905 70.3913 209.905ZM128.449 253H139.244C139.074 251.555 138.819 248.665 138.819 245.435V211.18H127.514V235.49C127.514 240.335 124.624 243.735 119.609 243.735C114.339 243.735 111.959 239.995 111.959 235.32V211.18H100.654V237.615C100.654 246.71 106.434 254.105 116.549 254.105C120.969 254.105 125.814 252.405 128.109 248.495C128.109 250.195 128.279 252.15 128.449 253ZM195.6 211.18L186.505 238.04L178.77 211.18H166.87L180.215 253H191.69L201.295 224.44L211.07 253H222.375L235.465 211.18H224.245L216.51 238.125L207.5 211.18H195.6ZM239.808 241.61C239.808 248.155 245.248 254.19 254.173 254.19C260.378 254.19 264.373 251.3 266.498 247.985C266.498 249.6 266.668 251.895 266.923 253H277.293C277.038 251.555 276.783 248.58 276.783 246.37V225.8C276.783 217.385 271.853 209.905 258.593 209.905C247.373 209.905 241.338 217.13 240.658 223.675L250.688 225.8C251.028 222.145 253.748 219 258.678 219C263.438 219 265.733 221.465 265.733 224.44C265.733 225.885 264.968 227.075 262.588 227.415L252.303 228.945C245.333 229.965 239.808 234.13 239.808 241.61ZM256.553 245.775C252.898 245.775 251.113 243.395 251.113 240.93C251.113 237.7 253.408 236.085 256.298 235.66L265.733 234.215V236.085C265.733 243.48 261.313 245.775 256.553 245.775ZM299.484 228.945C299.484 224.1 302.374 220.275 307.304 220.275C312.744 220.275 315.039 223.93 315.039 228.605V253H326.344V226.65C326.344 217.47 321.584 210.075 311.214 210.075C306.709 210.075 301.694 212.03 299.144 216.365V211.18H288.179V253H299.484V228.945ZM351.757 198.685H341.557V204.55C341.557 208.29 339.517 211.18 335.097 211.18H332.972V221.21H340.537V240.675C340.537 248.75 345.637 253.595 353.797 253.595C357.112 253.595 359.152 253 360.172 252.575V243.225C359.577 243.395 358.047 243.565 356.687 243.565C353.457 243.565 351.757 242.375 351.757 238.72V221.21H360.172V211.18H351.757V198.685ZM368.931 245.86C368.931 250.11 372.416 253.595 376.666 253.595C381.001 253.595 384.486 250.11 384.486 245.86C384.486 241.61 381.001 238.125 376.666 238.125C372.416 238.125 368.931 241.61 368.931 245.86Z" fill="#272D4E"/>
</svg>
